<svg width="92" height="50" viewBox="0 0 759 400" fill="none" xmlns="http://www.w3.org/2000/svg">
<path d="M365.994 263.012C363.678 289.928 358.865 346.271 357.548 360.537C356.504 371.931 358.774 383.729 365.495 390.637C369.197 393.953 373.581 396.438 378.346 397.925C383.111 399.412 388.145 399.864 393.103 399.25C402.502 397.429 411.254 393.207 418.487 387.004C449.228 362.151 526.241 294.997 591.358 233.27C594.99 232.732 598.668 232.238 602.346 231.834C647.029 226.99 690.303 233.988 697.705 255.789C702.563 270.189 697.705 279.027 693.164 292.754C700.838 285.621 720.409 267.767 728.356 258.302C740.934 242.915 760.414 218.96 758.416 191.012C756.418 163.065 735.394 134.579 690.712 99.5434C692.801 95.0575 693.89 75.6333 671.64 64.1043C615.878 35.1699 490.914 4.48596 400.55 0C402.325 4.54835 403.841 9.19107 405.091 13.9065C307.207 9.93 209.162 12.658 111.66 22.0709C84.5056 24.6728 0 35.8877 0 35.8877L190.717 115.738C170.328 120.224 149.849 125.069 128.87 130.362C107.891 135.655 44.8638 157.009 44.8638 157.009L121.196 173.158C159.203 181.233 266.504 203.618 311.912 213.935C305.873 232.238 266.504 358.877 266.504 358.877C266.504 358.877 317.407 305.987 333.345 291.587C344.743 281.18 355.187 271.984 365.858 263.236" fill="#231F20"/>
<path d="M409.132 79.6662H410.04C407.361 74.6419 405.136 69.483 403.138 65.7148C439.737 61.2289 524.561 65.7148 558.39 86.8886C592.22 108.062 623.007 115.33 646.165 110.305C643.603 115.188 640.084 119.518 635.812 123.045C626.207 124.804 616.375 125.001 606.705 123.629C575.736 151.038 560.434 143.053 530.873 158.529C481.257 183.621 433.759 212.603 388.834 245.198C388.426 250.267 384.747 296.607 384.293 302.035L457.946 275.837L443.052 263.456L505.898 249.37C516.069 233.221 593.945 159.651 606.296 150.679C610.43 149.753 614.615 149.064 618.829 148.615C635.094 133.985 653.121 121.389 672.502 111.113V111.113C672.835 110.085 673.093 109.036 673.274 107.973C674.41 101.378 673.91 91.7782 665.055 87.2474C515.207 10.5375 238.214 35.3 89.1367 47.143L229.904 107.703C297.245 94.2007 359.5 85.2287 409.132 79.6662Z" fill="#C3AC90"/>
<path d="M443.108 263.366L458.002 275.747L384.349 301.945C384.349 301.945 380.398 348.644 379.399 359.635C377.992 374.573 390.933 379.193 403.194 369.279C430.439 347.209 494.011 293.018 553.542 238.559L443.108 263.366Z" fill="#8D7659"/>
<path d="M574.448 132.513C546.476 136.999 533.035 117.619 530.583 97.2531C520.502 95.6382 510.512 94.6961 501.521 93.8887C501.067 119.414 518.867 148.438 561.097 140.946C577.263 138.031 584.392 133.365 587.843 127.937C583.677 130.373 579.033 131.903 574.22 132.423" fill="#F7F7F7"/>
<path d="M672.526 111.109C614.13 140.762 567.132 200.829 550.876 222.72C599.055 207.378 698.636 199.079 714.665 246.81C741.184 213.12 767.884 183.916 672.526 111.109ZM644.1 150.451C647.063 144.612 652.135 140.082 658.313 137.756C667.886 141.592 676.411 147.601 683.197 155.296L644.1 150.451Z" fill="#F0EAD8"/>
<path d="M510.381 147.537C490.401 136.502 483.998 115.014 486.178 94.8721C454.392 97.2496 282.338 110.573 126.904 151.036C176.854 159.604 340.053 196.838 340.053 196.838C340.053 196.838 322.207 248.785 312.808 281.802C372.293 230.572 411.571 200.382 510.199 147.537M325.295 148.748L447.263 135.291L381.375 182.842L382.782 163.462L325.295 148.748Z" fill="#ED1B2F"/>
</svg>
